<!--?xml version="1.0" encoding="utf-8"?-->
<!-- Generator: Adobe Illustrator 18.0.0, SVG Export Plug-In . SVG Version: 6.00 Build 0)  -->

<svg version="1.1" id="_x31_0" xmlns="http://www.w3.org/2000/svg" xmlns:xlink="http://www.w3.org/1999/xlink" x="0px" y="0px" viewBox="0 0 512 512" style="width: 256px; height: 256px; opacity: 1;" xml:space="preserve">
<style type="text/css">
	.st0{fill:#374149;}
</style>
<g>
	<polygon class="st0" points="428.649,163.87 428.864,163.783 254.174,91.899 187.753,64.502 187.753,64.57 187.591,64.502 
		187.591,263.064 328.765,204.974 428.8,163.934 	" style="fill: rgb(75, 75, 75);"></polygon>
	<path class="st0" d="M160.65,463.853V39.273c6.218-3.681,10.435-10.382,10.435-18.134C171.085,9.466,161.619,0,149.945,0
		c-11.673,0-21.139,9.466-21.139,21.139c0,7.751,4.217,14.457,10.435,18.134v424.58c-31.797,1.862-56.105,11.84-56.105,23.902
		c0,13.389,29.91,24.245,66.809,24.245c36.899,0,66.81-10.856,66.81-24.245C216.755,475.693,192.447,465.714,160.65,463.853z" style="fill: rgb(75, 75, 75);"></path>
</g>
</svg>
