<?xml version="1.0" encoding="utf-8"?>
<!-- Generator: Adobe Illustrator 17.1.0, SVG Export Plug-In . SVG Version: 6.00 Build 0)  -->
<!DOCTYPE svg PUBLIC "-//W3C//DTD SVG 1.1//EN" "http://www.w3.org/Graphics/SVG/1.1/DTD/svg11.dtd">
<svg version="1.1" id="Layer_0_xA0_Image_1_" xmlns="http://www.w3.org/2000/svg" xmlns:xlink="http://www.w3.org/1999/xlink"
	 x="0px" y="0px" viewBox="0 0 432 252" enable-background="new 0 0 432 252" xml:space="preserve">
<g>
	<g id="XMLID_1_">
		<g>
			<path fill="#383838" d="M266.9,0c0,13.8,0,27.2,0,41.4c-33.1,0-64.2,0-95.2,0c0,17.4,0,33.9,0,51.7c31.9,0,63,0,94.4,0
				c0,16.2,0,31.2,0,47c-31.9,0-63.4,0-94.8,0c0,28.8,0,56.8,0,84.9c-19.9,0-39.9,0-59.8,0c0-74.6,0-149.6,0-225
				C163.3,0,215.1,0,266.9,0z"/>
		</g>
	</g>
</g>
</svg>
