<?xml version="1.0" encoding="utf-8"?>
<!-- Generator: Adobe Illustrator 17.1.0, SVG Export Plug-In . SVG Version: 6.00 Build 0)  -->
<!DOCTYPE svg PUBLIC "-//W3C//DTD SVG 1.1//EN" "http://www.w3.org/Graphics/SVG/1.1/DTD/svg11.dtd">
<svg version="1.1" xmlns="http://www.w3.org/2000/svg" xmlns:xlink="http://www.w3.org/1999/xlink" x="0px" y="0px"
	 viewBox="0 0 100 28" enable-background="new 0 0 100 28" xml:space="preserve">
<g id="Suburb">
	<g>
		<path fill="#35393B" d="M37,8.8c-1.6,0-2.2,0.5-2.2,2c0,2,1.6,1.9,4.1,2.2c1.9,0.3,3.7,1.1,3.7,4.3c0,3.7-1.6,5.3-5.5,5.3
			c-4,0-5.3-2-5.3-4.6h2.9c0.1,1.2,0.6,1.9,2.5,1.9c1.7,0,2.5-0.7,2.5-2.6c0-1.9-2.3-1.9-4-2.1c-1.8-0.2-3.8-1.1-3.8-4.5
			c0-3,1.8-4.6,5.2-4.6c2.9,0,4.9,1.1,5.1,4.3h-2.9C39.2,9.2,38.5,8.8,37,8.8z"/>
		<path fill="#35393B" d="M54.4,22.5h-2.6l-0.1-1.3c-0.8,0.9-1.9,1.3-2.9,1.3c-2,0-4-1.1-4-4.8v-7.6h2.9v7.6c0,1.6,0.7,2.2,1.9,2.2
			c1.1,0,2-0.5,2-2.1v-7.7h2.9V22.5z"/>
		<path fill="#35393B" d="M57,17.7V6.3h2.9v4.8c0.6-0.8,1.7-1.1,2.7-1.1c2.7,0,4,1.7,4,4.4v3.3c0,3.4-1.7,4.9-4.8,4.9
			C58.6,22.5,57,21.1,57,17.7z M59.9,14.7v3c0,1.5,0.4,2.4,1.9,2.4c1.1,0,1.9-0.6,1.9-2.4v-2.9c0-1.5-0.7-2.1-1.9-2.1
			C60.6,12.6,59.9,13.3,59.9,14.7z"/>
		<path fill="#35393B" d="M78.8,22.5h-2.6l-0.1-1.3c-0.8,0.9-1.9,1.3-2.9,1.3c-2,0-4-1.1-4-4.8v-7.6H72v7.6c0,1.6,0.7,2.2,1.9,2.2
			c1.1,0,2-0.5,2-2.1v-7.7h2.9V22.5z"/>
		<path fill="#35393B" d="M87.7,13.1c-1.9-0.3-3.3,0.5-3.3,2.3v7.1h-2.9V10.1h2.6l0.1,1.3c0.5-0.9,1.9-1.6,3.4-1.4V13.1z"/>
		<path fill="#35393B" d="M89.5,17.7V6.3h2.9v4.8c0.6-0.8,1.7-1.1,2.7-1.1c2.7,0,4,1.7,4,4.4v3.3c0,3.4-1.7,4.9-4.8,4.9
			C91.1,22.5,89.5,21.1,89.5,17.7z M92.4,14.7v3c0,1.5,0.4,2.4,1.9,2.4c1.1,0,1.9-0.6,1.9-2.4v-2.9c0-1.5-0.7-2.1-1.9-2.1
			C93.1,12.6,92.4,13.3,92.4,14.7z"/>
	</g>
</g>
<g id="U_1_">
	<g>
		<path fill="#35393B" d="M6.9,13.4c-3.6-3.6-3.5-7.1,0-10.6c3.7-3.7,7.1-3.6,10.7,0l7.9,7.9l-2.3,2.3l-8.4-8.4
			c-2-2-4.1-1.9-6.1,0.1c-2.6,2.6-1.5,4.5,0.7,6.7l7.6,7.6l-2.3,2.3L6.9,13.4z"/>
	</g>
</g>
<g id="U">
	<g>
		<path fill="#35393B" d="M21.2,14.5c3.6,3.6,3.5,7.1,0,10.7c-3.7,3.7-7.2,3.7-10.8,0l-8-8l2.3-2.3l8.4,8.4c2,2,4.1,1.9,6.2-0.1
			c2.6-2.6,1.5-4.5-0.7-6.7l-7.7-7.7l2.3-2.3L21.2,14.5z"/>
	</g>
</g>
</svg>
