<?xml version="1.0" encoding="utf-8"?>
<!-- Generator: Adobe Illustrator 17.1.0, SVG Export Plug-In . SVG Version: 6.00 Build 0)  -->
<!DOCTYPE svg PUBLIC "-//W3C//DTD SVG 1.1//EN" "http://www.w3.org/Graphics/SVG/1.1/DTD/svg11.dtd">
<svg version="1.1" id="Layer_1" xmlns="http://www.w3.org/2000/svg" xmlns:xlink="http://www.w3.org/1999/xlink" x="0px" y="0px"
	 viewBox="0 0 432 252" enable-background="new 0 0 432 252" xml:space="preserve">
<g>
	<g id="XMLID_1_">
		<g>
			<path fill="#FFFFFF" d="M417.7,61.9v14.3c0,14.7-7.3,21.2-20.7,21.2c-13.8-0.4-20.7-6.5-20.7-21.2V27h12.5v20.7
				c2.6-3.5,7.3-4.8,11.7-4.8C412.1,42.9,417.7,50.3,417.7,61.9z M405.2,76.2V63.7c0-6.5-3-9.1-8.2-9.1c-5.2-0.4-8.2,2.6-8.2,8.6v13
				c0,6.5,1.7,10.4,8.2,10.4C401.8,86.6,405.2,84,405.2,76.2z"/>
			<path fill="#35393B" d="M368.5,56.3h-0.4v-0.1C368.2,56.3,368.3,56.3,368.5,56.3z"/>
			<path fill="#FFFFFF" d="M368.1,42.9v13.3c-8-1.1-13.8,2.4-13.8,10v30.7h-12.5V43.4h11.2l0.4,5.6
				C355.5,45.1,361.6,42.1,368.1,42.9z"/>
			<path fill="#FFFFFF" d="M330,43.4v53.6h-11.2l-0.4-5.6c-3.5,3.9-8.2,5.6-12.5,5.6c-8.6,0-17.3-4.8-17.3-20.7V43.4h12.1v32.8
				c0,6.9,3,9.5,8.2,9.5c4.8,0,8.6-2.2,8.6-9.1V43.4H330z"/>
			<path fill="#FFFFFF" d="M277.3,61.9v14.3c0,14.7-7.3,21.2-20.7,21.2c-13.8-0.4-20.7-6.5-20.7-21.2V27h12.5v20.7
				c2.6-3.5,7.3-4.8,11.7-4.8C271.7,42.9,277.3,50.3,277.3,61.9z M264.8,76.2V63.7c0-6.5-3-9.1-8.2-9.1c-5.2-0.4-8.2,2.6-8.2,8.6v13
				c0,6.5,1.7,10.4,8.2,10.4C261.4,86.6,264.8,84,264.8,76.2z"/>
			<path fill="#FFFFFF" d="M225.1,43.4v53.6h-0.4h-11.2l-0.4-5.6c-3.4,3.9-8.2,5.6-12.5,5.6c-8.6,0-17.3-4.8-17.3-20.7V43.4h12.5
				v32.8c0,6.9,3,9.5,8.2,9.5c4.8,0,8.6-2.2,8.6-9.1V43.4H225.1z"/>
			<path fill="#FFFFFF" d="M171.9,44.7h-12.5c-0.4-5.2-3.5-6.9-9.9-6.9c-6.9,0-9.5,2.2-9.5,8.6c0,8.6,6.9,8.2,17.7,9.5
				c8.2,1.3,16,4.8,16,18.6c0,16-6.9,22.9-23.8,22.9c-17.3,0-22.9-8.6-22.9-19.9h12.5c0.4,5.2,2.6,8.2,10.8,8.2
				c7.3,0,10.8-3,10.8-11.2c0-8.2-9.9-8.2-17.3-9.1c-7.8-0.9-16.4-4.8-16.4-19.4c0-13,7.8-19.9,22.5-19.9
				C162.4,26.1,171.1,30.8,171.9,44.7z"/>
			<path fill="#FFFFFF" d="M99.8,46l-9.9,9.9L53.6,19.6C44.9,11,35.8,11.4,27.2,20c-11.2,11.2-6.5,19.4,3,29l32.8,32.8l-9.9,9.9
				L19.4,57.6C3.9,42.1,4.3,27,19.4,11.8c16-16,30.7-15.6,46.2,0L99.8,46z"/>
			<path fill="#FFFFFF" d="M81.2,62.4c15.6,15.5,15.1,30.7,0,46.2c-16,16-31.1,16-46.6,0L0,74l9.9-9.9l36.3,36.3
				c8.6,8.6,17.7,8.2,26.8-0.4c11.2-11.2,6.5-19.4-3-28.9L36.7,37.8l9.9-9.9L81.2,62.4z"/>
		</g>
		<g>
		</g>
	</g>
</g>
</svg>
